<svg width="575" height="353" viewBox="0 0 575 353" fill="none" xmlns="http://www.w3.org/2000/svg">
<path d="M186.301 111C191.14 102.581 193.9 92.8629 193.9 82.5137C193.9 50.3898 167.306 24.3483 134.5 24.3483C101.694 24.3483 75.1 50.3898 75.1 82.5137C75.1 92.8629 77.8603 102.581 82.6992 111C72.8989 99.2595 67 84.1371 67 67.6342C67 30.2808 97.2208 -1.63277e-06 134.5 0C171.779 1.63277e-06 202 30.2809 202 67.6342C202 84.1371 196.101 99.2595 186.301 111Z" fill="#FFF500"/>
<path d="M111 121.815C102.581 116.941 92.8629 114.16 82.5137 114.16C50.3898 114.16 24.3483 140.951 24.3483 174C24.3483 207.049 50.3898 233.84 82.5137 233.84C92.8629 233.84 102.581 231.059 111 226.185C99.2595 236.057 84.1371 242 67.6342 242C30.2808 242 0 211.555 0 174C0 136.445 30.2808 106 67.6342 106C84.1371 106 99.2595 111.943 111 121.815Z" fill="#FFF500"/>
<path d="M149 125.467C157.343 120.699 166.974 117.98 177.23 117.98C209.064 117.98 234.871 144.18 234.871 176.5C234.871 208.82 209.064 235.02 177.23 235.02C166.974 235.02 157.343 232.301 149 227.533C160.635 237.189 175.621 243 191.975 243C228.992 243 259 213.227 259 176.5C259 139.773 228.992 110 191.975 110C175.621 110 160.635 115.811 149 125.467Z" fill="#FFF500"/>
<path d="M132 225C127.812 233.81 118.677 251.43 125.387 277.86C135.968 319.537 128.253 331.058 125.387 348" stroke="black" stroke-width="10" stroke-linecap="round"/>
<path d="M329.539 161.453C334.789 161.453 338.891 164.43 341.844 170.383C342.688 172.492 343.109 174.438 343.109 176.219V176.57C343.109 183.18 339.945 191.688 333.617 202.094C327.57 210.672 322.203 214.961 317.516 214.961C315.922 214.961 314.492 214.117 313.227 212.43V212.219C313.227 212.031 313.297 211.938 313.438 211.938C314.516 212.031 315.195 212.078 315.477 212.078C318.055 212.078 321.641 209.336 326.234 203.852C332.141 196.352 336.148 188.336 338.258 179.805C338.727 177.555 338.961 175.633 338.961 174.039C338.961 171.273 337.484 169.445 334.531 168.555C333.219 168.461 332.516 168.391 332.422 168.344C327.594 168.344 321.945 171.367 315.477 177.414C309.664 183.695 305.727 188.898 303.664 193.023C300.664 197.805 297.664 204.203 294.664 212.219C290.023 225.109 287.703 237.016 287.703 247.938C287.703 262.75 291.641 272.734 299.516 277.891C301.719 279.062 303.992 279.648 306.336 279.648C313.977 279.648 322.344 273.367 331.438 260.805C335.797 254.242 339.523 247.773 342.617 241.398C343.414 239.711 344.492 237.344 345.852 234.297L346.273 234.367C347.305 234.367 348.5 235.117 349.859 236.617V237.039C346.016 246.273 340.906 255.555 334.531 264.883C324.922 277.68 315.523 284.078 306.336 284.078H305.844C296.516 284.078 288.852 278.242 282.852 266.57C279.57 259.352 277.93 251.359 277.93 242.594C277.93 227.641 281.914 211.703 289.883 194.781C292.883 188.969 296.281 183.648 300.078 178.82C309.547 167.242 319.367 161.453 329.539 161.453ZM348.312 209.547H348.664C350.867 209.547 353.586 211.141 356.82 214.328C357.148 214.984 357.312 215.43 357.312 215.664C355.812 219.414 355.062 221.781 355.062 222.766C357.875 222.344 359.867 222.109 361.039 222.062C364.648 223 367.32 224.641 369.055 226.984C369.383 227.406 369.547 227.758 369.547 228.039V228.25L365.609 241.469C363.734 247.844 362.797 252.719 362.797 256.094C362.797 256.938 362.961 257.547 363.289 257.922C364.227 257.922 365.984 255.25 368.562 249.906C370.016 246.953 372.312 241.82 375.453 234.508L375.664 234.367C376.883 234.367 378.172 235.188 379.531 236.828V237.039C375.266 248.148 371.938 255.273 369.547 258.414C367.438 260.805 365.727 262 364.414 262H363.641C361.109 262 358.672 260.828 356.328 258.484C354.125 256.047 353.023 253.469 353.023 250.75C353.023 246.438 354.523 239.383 357.523 229.586H357.453C356.094 229.352 354.688 228.906 353.234 228.25C351.406 233.688 350.164 236.734 349.508 237.391C348.336 237.391 347.047 236.594 345.641 235V234.859C346.859 231.812 347.984 228.766 349.016 225.719C346.484 223.984 345.219 221.828 345.219 219.25V218.406C345.359 215.453 346.227 212.547 347.82 209.688C347.961 209.594 348.125 209.547 348.312 209.547ZM385.789 222.133H386.492C389.492 222.133 392.445 223.961 395.352 227.617C396.055 228.93 396.406 230.172 396.406 231.344C396.406 234.484 394.461 238.398 390.57 243.086C388.602 244.727 387.336 245.547 386.773 245.547C386.633 245.641 386.422 245.688 386.141 245.688H385.578C384.781 245.688 383.891 245.477 382.906 245.055C382.297 246.789 381.875 249.109 381.641 252.016C381.641 254.5 382.461 256.211 384.102 257.148L385.227 257.289C388.695 257.289 393.734 250.305 400.344 236.336C400.859 235.07 401.188 234.414 401.328 234.367H401.68C402.852 234.367 404.023 235.141 405.195 236.688V236.969C398.07 253.609 391.719 261.93 386.141 261.93C379.812 261.93 375.523 258.953 373.273 253C372.523 250.891 372.148 248.781 372.148 246.672C372.148 239.781 374.75 232.961 379.953 226.211C382.391 223.492 384.336 222.133 385.789 222.133ZM384.383 242.102C387.242 240.273 389.656 236.922 391.625 232.047C391.953 230.969 392.117 230.219 392.117 229.797C389.258 232.281 387.031 235.07 385.438 238.164C384.734 239.945 384.383 241.258 384.383 242.102ZM414.055 222.062C416.867 222.062 419.75 223.984 422.703 227.828C423.641 224.359 424.273 222.625 424.602 222.625C424.742 222.578 424.906 222.555 425.094 222.555C427.25 222.555 429.969 224.078 433.25 227.125C433.625 227.875 433.812 228.344 433.812 228.531C429.406 241.984 427.203 250.984 427.203 255.531V256.656L427.414 257.5H427.695C428.773 257.5 430.93 253.961 434.164 246.883C434.773 245.664 436.625 241.492 439.719 234.367H440.07C441.148 234.367 442.391 235.141 443.797 236.688V236.828C437.047 253.281 432.547 261.508 430.297 261.508C430.297 261.695 429.617 261.812 428.258 261.859C424.836 261.859 421.648 259.867 418.695 255.883C418.227 254.898 417.828 253.703 417.5 252.297H417.359C413.891 258.672 409.719 261.859 404.844 261.859C400.766 261.859 397.812 259.258 395.984 254.055C395.656 252.18 395.492 250.938 395.492 250.328C395.492 244.75 398.422 237.648 404.281 229.023C407.797 224.383 411.055 222.062 414.055 222.062ZM405.195 255.391C405.195 256.188 405.547 256.773 406.25 257.148H406.531C408.922 257.148 412.578 252.039 417.5 241.82C419.375 237.883 420.828 234.016 421.859 230.219H421.789C421.367 230.219 420.641 229.984 419.609 229.516C416.281 231.297 412.859 235.539 409.344 242.242C406.578 247.727 405.195 252.109 405.195 255.391ZM448.508 201.391L448.719 200.688C452.141 190.234 454.883 183.719 456.945 181.141H457.578C459.312 181.141 461.703 182.43 464.75 185.008C465.641 185.898 466.086 186.555 466.086 186.977V187.469C465.195 187.938 464.633 188.383 464.398 188.805C462.711 192.508 461.234 196.492 459.969 200.758L459.758 201.391H476.773C477.805 201.438 479.188 202.164 480.922 203.57C481.484 204.18 481.766 204.602 481.766 204.836V205.047C481.672 205.234 481.531 205.328 481.344 205.328H458.422C455.047 216.109 452.047 227.664 449.422 239.992C448.062 247.258 447.383 252.156 447.383 254.688C447.383 256.188 447.664 256.938 448.227 256.938C449.82 255.953 453.547 248.547 459.406 234.719L459.758 234.438C460.977 234.438 462.242 235.281 463.555 236.969V237.18C458.023 250.727 453.828 258.789 450.969 261.367C449.984 261.789 449.188 262 448.578 262H447.875C445.062 262 442.297 260.312 439.578 256.938C438.312 255.391 437.68 253.211 437.68 250.398V249.414C437.68 241.258 440.727 226.914 446.82 206.383L447.172 205.328H442.25C441.219 205.281 439.859 204.555 438.172 203.148C437.609 202.539 437.328 202.117 437.328 201.883V201.602C437.422 201.461 437.539 201.391 437.68 201.391H448.508ZM468.406 208.914H468.758C470.961 208.914 473.633 210.508 476.773 213.695C477.148 214.305 477.336 214.75 477.336 215.031C476.164 219.438 475.414 221.828 475.086 222.203L474.875 222.344H474.242C472.086 222.344 469.367 220.75 466.086 217.562C465.758 216.906 465.594 216.461 465.594 216.227C466.812 211.773 467.539 209.383 467.773 209.055L468.406 208.914ZM463.977 222.133C465.992 222.133 468.664 223.609 471.992 226.562C472.555 227.453 472.836 228.016 472.836 228.25C468.336 241.844 466.086 250.867 466.086 255.32V256.938C466.086 257.547 466.203 257.875 466.438 257.922H466.719C469.109 255.766 472.93 248.266 478.18 235.422C478.414 234.812 478.625 234.484 478.812 234.438H478.953C480.125 234.438 481.344 235.234 482.609 236.828V237.109C478.344 248.688 474.875 255.953 472.203 258.906C470.422 260.969 468.594 262 466.719 262H466.367C463.18 262 460.297 260.078 457.719 256.234C456.688 254.219 456.172 252.297 456.172 250.469C456.172 245.547 458.492 236.219 463.133 222.484C463.414 222.25 463.695 222.133 463.977 222.133ZM488.867 221.641C490.648 221.641 492.594 222.602 494.703 224.523H494.844C494.844 223.961 495.805 223.562 497.727 223.328C500.867 223.328 503.211 225.156 504.758 228.812C504.992 229.891 505.156 231.109 505.25 232.469C505.25 238.562 503.164 245.57 498.992 253.492C495.477 259.023 492.172 261.789 489.078 261.789H487.883C484.93 261.789 482.117 260.195 479.445 257.008C477.102 253.867 475.93 250.516 475.93 246.953C475.93 241.375 477.781 234.883 481.484 227.477C483.828 223.586 486.289 221.641 488.867 221.641ZM495.758 225.578V225.719C497.305 227.594 498.078 228.859 498.078 229.516C497.984 229.75 497.703 229.938 497.234 230.078C496.719 230.078 495.758 229.844 494.352 229.375C492.336 231.344 490.742 233.734 489.57 236.547C487.086 242.453 485.844 247.445 485.844 251.523V251.875C485.844 252.016 485.82 252.156 485.773 252.297C486.055 255.906 487.039 257.711 488.727 257.711C488.82 257.711 488.867 257.758 488.867 257.852C491.914 257.852 495.266 252.508 498.922 241.82C500.234 237.367 500.891 233.734 500.891 230.922V230.008C500.844 227.711 500.656 226.516 500.328 226.422C499.203 226.75 498.523 226.914 498.289 226.914C497.539 226.773 496.695 226.328 495.758 225.578ZM511.93 221.992C513.992 222.18 516.383 223.422 519.102 225.719C520.133 226.703 520.648 227.453 520.648 227.969V228.109C520.648 228.484 520.25 230.266 519.453 233.453V233.594H519.523C520.273 232 522.547 229.281 526.344 225.438C528.922 223.141 530.961 221.992 532.461 221.992C534.43 221.992 537.055 223.469 540.336 226.422C541.039 227.312 541.391 228.18 541.391 229.023C541.391 230.617 540.078 236.125 537.453 245.547C536.188 250.094 535.555 253.938 535.555 257.078V257.219L535.695 257.852C537.758 256.117 541.695 248.312 547.508 234.438L547.719 234.297C548.938 234.297 550.227 235.094 551.586 236.688V236.898C547.086 248.43 543.922 255.32 542.094 257.57C540.078 260.383 538.086 261.789 536.117 261.789H535.695C531.805 261.789 528.734 259.516 526.484 254.969C526.016 253.656 525.781 252.344 525.781 251.031C525.781 247.703 527.492 239.969 530.914 227.828V227.617C527.164 231.086 524.656 234.062 523.391 236.547C520.297 241.094 517.297 247.234 514.391 254.969C513.922 256.422 513.336 258.578 512.633 261.438C512.352 261.578 512.117 261.648 511.93 261.648H511.648C509.586 261.648 506.914 260.125 503.633 257.078C503.164 256.188 502.93 255.672 502.93 255.531C507.242 237.578 509.961 226.516 511.086 222.344C511.414 222.109 511.695 221.992 511.93 221.992ZM552.852 222.062C554.539 222.156 556.719 223.398 559.391 225.789C559.953 226.398 560.234 226.914 560.234 227.336C559.766 229.586 559.531 231.742 559.531 233.805C559.531 235.539 559.742 237.484 560.164 239.641C566.117 236.125 570.055 234.367 571.977 234.367C572.68 234.555 573.5 235.258 574.438 236.477V236.688C574.391 236.922 573.641 237.227 572.188 237.602C569.375 238.82 565.719 241.188 561.219 244.703C562.766 249.719 563.539 253.047 563.539 254.688V255.672C563.539 258.484 561.922 260.453 558.688 261.578C557.703 261.859 556.648 262 555.523 262C550.508 261.672 547.391 259.797 546.172 256.375C546.172 256.094 546.125 255.742 546.031 255.32C546.031 252.93 548.703 249.367 554.047 244.633C553.109 241.586 552.43 238.914 552.008 236.617L551.375 237.109C548.938 235.984 547.648 235.047 547.508 234.297C550.32 228.25 551.727 224.406 551.727 222.766C551.961 222.297 552.336 222.062 552.852 222.062ZM551.305 255.039C552.805 254.617 553.93 253.82 554.68 252.648C555.008 251.758 555.172 250.938 555.172 250.188C553.016 252.25 551.727 253.867 551.305 255.039Z" fill="black"/>
<path d="M335.539 62.4531C340.789 62.4531 344.891 65.4297 347.844 71.3828C348.688 73.4922 349.109 75.4375 349.109 77.2188V77.5703C349.109 84.1797 345.945 92.6875 339.617 103.094C333.57 111.672 328.203 115.961 323.516 115.961C321.922 115.961 320.492 115.117 319.227 113.43V113.219C319.227 113.031 319.297 112.938 319.438 112.938C320.516 113.031 321.195 113.078 321.477 113.078C324.055 113.078 327.641 110.336 332.234 104.852C338.141 97.3516 342.148 89.3359 344.258 80.8047C344.727 78.5547 344.961 76.6328 344.961 75.0391C344.961 72.2734 343.484 70.4453 340.531 69.5547C339.219 69.4609 338.516 69.3906 338.422 69.3438C333.594 69.3438 327.945 72.3672 321.477 78.4141C315.664 84.6953 311.727 89.8984 309.664 94.0234C306.664 98.8047 303.664 105.203 300.664 113.219C296.023 126.109 293.703 138.016 293.703 148.938C293.703 163.75 297.641 173.734 305.516 178.891C307.719 180.062 309.992 180.648 312.336 180.648C319.977 180.648 328.344 174.367 337.438 161.805C341.797 155.242 345.523 148.773 348.617 142.398C349.414 140.711 350.492 138.344 351.852 135.297L352.273 135.367C353.305 135.367 354.5 136.117 355.859 137.617V138.039C352.016 147.273 346.906 156.555 340.531 165.883C330.922 178.68 321.523 185.078 312.336 185.078H311.844C302.516 185.078 294.852 179.242 288.852 167.57C285.57 160.352 283.93 152.359 283.93 143.594C283.93 128.641 287.914 112.703 295.883 95.7812C298.883 89.9688 302.281 84.6484 306.078 79.8203C315.547 68.2422 325.367 62.4531 335.539 62.4531ZM360.641 109.914H360.992C363.195 109.914 365.867 111.508 369.008 114.695C369.383 115.305 369.57 115.75 369.57 116.031C368.398 120.438 367.648 122.828 367.32 123.203L367.109 123.344H366.477C364.32 123.344 361.602 121.75 358.32 118.562C357.992 117.906 357.828 117.461 357.828 117.227C359.047 112.773 359.773 110.383 360.008 110.055L360.641 109.914ZM356.211 123.133C358.227 123.133 360.898 124.609 364.227 127.562C364.789 128.453 365.07 129.016 365.07 129.25C360.57 142.844 358.32 151.867 358.32 156.32V157.938C358.32 158.547 358.438 158.875 358.672 158.922H358.953C361.344 156.766 365.164 149.266 370.414 136.422C370.648 135.812 370.859 135.484 371.047 135.438H371.188C372.359 135.438 373.578 136.234 374.844 137.828V138.109C370.578 149.688 367.109 156.953 364.438 159.906C362.656 161.969 360.828 163 358.953 163H358.602C355.414 163 352.531 161.078 349.953 157.234C348.922 155.219 348.406 153.297 348.406 151.469C348.406 146.547 350.727 137.219 355.367 123.484C355.648 123.25 355.93 123.133 356.211 123.133ZM382.227 123.133C384.148 123.133 386.984 124.797 390.734 128.125C391.766 129.297 392.281 130.703 392.281 132.344C392.281 134.547 391.109 137.453 388.766 141.062C388.344 141.719 388.062 142.047 387.922 142.047H387.711C386.539 142.047 385.297 141.203 383.984 139.516V139.305C386 136.961 387.312 134.148 387.922 130.867H387.852C384.805 134.055 382.438 137.57 380.75 141.414C378.547 146.289 377.445 150.18 377.445 153.086V153.789C377.445 155.992 378.266 157.516 379.906 158.359C380.562 158.5 380.961 158.57 381.102 158.57H381.594C383.703 158.57 387.102 154.188 391.789 145.422C393.43 142.047 394.977 138.719 396.43 135.438H396.852C397.836 135.438 399.102 136.234 400.648 137.828V138.109C395.445 148.984 391.742 155.852 389.539 158.711C386.961 161.57 384.148 163 381.102 163H380.539C375.523 163 371.516 159.93 368.516 153.789C367.906 152.195 367.602 150.391 367.602 148.375C367.602 142.469 369.875 135.93 374.422 128.758C377.234 125.008 379.836 123.133 382.227 123.133ZM405.219 109.914H405.57C407.773 109.914 410.445 111.508 413.586 114.695C413.961 115.305 414.148 115.75 414.148 116.031C412.977 120.438 412.227 122.828 411.898 123.203L411.688 123.344H411.055C408.898 123.344 406.18 121.75 402.898 118.562C402.57 117.906 402.406 117.461 402.406 117.227C403.625 112.773 404.352 110.383 404.586 110.055L405.219 109.914ZM400.789 123.133C402.805 123.133 405.477 124.609 408.805 127.562C409.367 128.453 409.648 129.016 409.648 129.25C405.148 142.844 402.898 151.867 402.898 156.32V157.938C402.898 158.547 403.016 158.875 403.25 158.922H403.531C405.922 156.766 409.742 149.266 414.992 136.422C415.227 135.812 415.438 135.484 415.625 135.438H415.766C416.938 135.438 418.156 136.234 419.422 137.828V138.109C415.156 149.688 411.688 156.953 409.016 159.906C407.234 161.969 405.406 163 403.531 163H403.18C399.992 163 397.109 161.078 394.531 157.234C393.5 155.219 392.984 153.297 392.984 151.469C392.984 146.547 395.305 137.219 399.945 123.484C400.227 123.25 400.508 123.133 400.789 123.133Z" fill="#FFF500"/>
<path d="M347.844 71.3828L349.701 70.64L349.671 70.5657L349.635 70.494L347.844 71.3828ZM339.617 103.094L341.252 104.246L341.291 104.191L341.326 104.133L339.617 103.094ZM319.227 113.43H317.227V114.096L317.627 114.63L319.227 113.43ZM319.438 112.938L319.611 110.945L319.524 110.938H319.438V112.938ZM332.234 104.852L333.768 106.136L333.787 106.113L333.806 106.089L332.234 104.852ZM344.258 80.8047L346.199 81.2847L346.208 81.2488L346.216 81.2126L344.258 80.8047ZM340.531 69.5547L341.109 67.6399L340.896 67.5756L340.674 67.5598L340.531 69.5547ZM338.422 69.3438L339.316 67.5549L338.894 67.3438H338.422V69.3438ZM321.477 78.4141L320.111 76.953L320.058 77.0025L320.009 77.0557L321.477 78.4141ZM309.664 94.0234L311.358 95.0864L311.41 95.0044L311.453 94.9179L309.664 94.0234ZM300.664 113.219L298.791 112.518L298.787 112.529L298.782 112.541L300.664 113.219ZM305.516 178.891L304.42 180.564L304.496 180.614L304.576 180.656L305.516 178.891ZM337.438 161.805L339.058 162.977L339.081 162.945L339.103 162.911L337.438 161.805ZM348.617 142.398L350.417 143.272L350.421 143.262L350.426 143.252L348.617 142.398ZM351.852 135.297L352.18 133.324L350.655 133.07L350.025 134.482L351.852 135.297ZM352.273 135.367L351.945 137.34L352.108 137.367H352.273V135.367ZM355.859 137.617H357.859V136.846L357.341 136.274L355.859 137.617ZM355.859 138.039L357.706 138.808L357.859 138.439V138.039H355.859ZM340.531 165.883L342.131 167.084L342.157 167.048L342.182 167.011L340.531 165.883ZM288.852 167.57L287.031 168.398L287.051 168.442L287.073 168.485L288.852 167.57ZM295.883 95.7812L294.106 94.864L294.089 94.8963L294.073 94.9292L295.883 95.7812ZM306.078 79.8203L304.53 78.5542L304.518 78.569L304.506 78.584L306.078 79.8203ZM335.539 64.4531C339.815 64.4531 343.33 66.7832 346.052 72.2716L349.635 70.494C346.452 64.0762 341.763 60.4531 335.539 60.4531V64.4531ZM345.987 72.1256C346.761 74.061 347.109 75.7514 347.109 77.2188H351.109C351.109 75.1236 350.614 72.9233 349.701 70.64L345.987 72.1256ZM347.109 77.2188V77.5703H351.109V77.2188H347.109ZM347.109 77.5703C347.109 83.6178 344.183 91.7367 337.908 102.055L341.326 104.133C347.708 93.6383 351.109 84.7415 351.109 77.5703H347.109ZM337.983 101.941C335.017 106.148 332.288 109.2 329.808 111.182C327.319 113.17 325.237 113.961 323.516 113.961V117.961C326.482 117.961 329.427 116.607 332.305 114.307C335.192 112 338.171 108.617 341.252 104.246L337.983 101.941ZM323.516 113.961C322.744 113.961 321.847 113.591 320.827 112.23L317.627 114.63C319.137 116.644 321.1 117.961 323.516 117.961V113.961ZM321.227 113.43V113.219H317.227V113.43H321.227ZM321.227 113.219C321.227 113.317 321.218 113.756 320.879 114.208C320.459 114.768 319.855 114.938 319.438 114.938V110.938C318.879 110.938 318.17 111.154 317.679 111.808C317.27 112.353 317.227 112.933 317.227 113.219H321.227ZM319.264 114.93C320.312 115.021 321.089 115.078 321.477 115.078V111.078C321.301 111.078 320.719 111.041 319.611 110.945L319.264 114.93ZM321.477 115.078C323.429 115.078 325.407 114.069 327.315 112.61C329.272 111.113 331.424 108.934 333.768 106.136L330.701 103.567C328.451 106.254 326.513 108.187 324.885 109.433C323.207 110.716 322.103 111.078 321.477 111.078V115.078ZM333.806 106.089C339.872 98.3852 344.016 90.115 346.199 81.2847L342.316 80.3246C340.281 88.5569 336.409 96.318 330.663 103.614L333.806 106.089ZM346.216 81.2126C346.701 78.8818 346.961 76.8153 346.961 75.0391H342.961C342.961 76.4503 342.752 78.2276 342.3 80.3968L346.216 81.2126ZM346.961 75.0391C346.961 73.2834 346.484 71.6675 345.409 70.3371C344.35 69.026 342.851 68.1654 341.109 67.6399L339.954 71.4695C341.164 71.8346 341.88 72.3334 342.298 72.8504C342.7 73.3481 342.961 74.0291 342.961 75.0391H346.961ZM340.674 67.5598C340.023 67.5133 339.542 67.4739 339.219 67.4416C339.054 67.4251 338.952 67.4126 338.897 67.4046C338.868 67.4003 338.876 67.4006 338.905 67.4068C338.919 67.41 338.957 67.4184 339.009 67.4336C339.046 67.4445 339.168 67.4806 339.316 67.5549L337.527 71.1326C337.79 71.2637 338.036 71.3116 338.067 71.318C338.157 71.3374 338.245 71.3516 338.315 71.362C338.46 71.3833 338.633 71.403 338.821 71.4217C339.201 71.4597 339.727 71.5023 340.389 71.5496L340.674 67.5598ZM338.422 67.3438C332.804 67.3438 326.673 70.8188 320.111 76.953L322.842 79.8751C329.218 73.9156 334.383 71.3438 338.422 71.3438V67.3438ZM320.009 77.0557C314.157 83.3787 310.066 88.7476 307.875 93.129L311.453 94.9179C313.387 91.0493 317.171 86.0119 322.944 79.7724L320.009 77.0557ZM307.97 92.9605C304.872 97.8984 301.817 104.433 298.791 112.518L302.537 113.92C305.511 105.973 308.457 99.711 311.358 95.0864L307.97 92.9605ZM298.782 112.541C294.083 125.596 291.703 137.734 291.703 148.938H295.703C295.703 138.297 297.964 126.623 302.546 113.896L298.782 112.541ZM291.703 148.938C291.703 164.022 295.711 174.862 304.42 180.564L306.611 177.217C299.57 172.607 295.703 163.478 295.703 148.938H291.703ZM304.576 180.656C307.049 181.972 309.644 182.648 312.336 182.648V178.648C310.341 178.648 308.388 178.153 306.455 177.125L304.576 180.656ZM312.336 182.648C316.724 182.648 321.138 180.843 325.543 177.537C329.944 174.233 334.444 169.351 339.058 162.977L335.817 160.632C331.337 166.821 327.107 171.361 323.141 174.338C319.178 177.313 315.589 178.648 312.336 178.648V182.648ZM339.103 162.911C343.507 156.282 347.28 149.736 350.417 143.272L346.818 141.525C343.767 147.811 340.087 154.202 335.772 160.698L339.103 162.911ZM350.426 143.252C351.232 141.546 352.317 139.163 353.678 136.112L350.025 134.482C348.668 137.524 347.596 139.876 346.809 141.544L350.426 143.252ZM351.523 137.27L351.945 137.34L352.602 133.394L352.18 133.324L351.523 137.27ZM352.273 137.367C352.391 137.367 353.073 137.521 354.377 138.96L357.341 136.274C355.927 134.714 354.218 133.367 352.273 133.367V137.367ZM353.859 137.617V138.039H357.859V137.617H353.859ZM354.013 137.27C350.228 146.364 345.188 155.525 338.88 164.754L342.182 167.011C348.625 157.584 353.803 148.183 357.706 138.808L354.013 137.27ZM338.932 164.682C329.428 177.338 320.549 183.078 312.336 183.078V187.078C322.498 187.078 332.416 180.021 342.131 167.084L338.932 164.682ZM312.336 183.078H311.844V187.078H312.336V183.078ZM311.844 183.078C303.559 183.078 296.447 177.97 290.63 166.656L287.073 168.485C293.257 180.514 301.473 187.078 311.844 187.078V183.078ZM290.672 166.743C287.521 159.81 285.93 152.104 285.93 143.594H281.93C281.93 152.615 283.619 160.893 287.031 168.398L290.672 166.743ZM285.93 143.594C285.93 129 289.818 113.354 297.692 96.6333L294.073 94.9292C286.01 112.053 281.93 128.282 281.93 143.594H285.93ZM297.66 96.6985C300.606 90.9914 303.937 85.7789 307.65 81.0566L304.506 78.584C300.626 83.5179 297.16 88.9461 294.106 94.864L297.66 96.6985ZM307.626 81.0864C316.899 69.7479 326.207 64.4531 335.539 64.4531V60.4531C324.527 60.4531 314.195 66.7365 304.53 78.5542L307.626 81.0864ZM360.641 109.914V107.914H360.421L360.207 107.962L360.641 109.914ZM369.008 114.695L370.711 113.647L370.592 113.454L370.432 113.292L369.008 114.695ZM369.57 116.031L371.503 116.545L371.57 116.293V116.031H369.57ZM367.32 123.203L368.43 124.867L368.651 124.72L368.825 124.52L367.32 123.203ZM367.109 123.344V125.344H367.715L368.219 125.008L367.109 123.344ZM358.32 118.562L356.531 119.457L356.683 119.761L356.927 119.997L358.32 118.562ZM357.828 117.227L355.899 116.699L355.828 116.958V117.227H357.828ZM360.008 110.055L359.574 108.102L358.826 108.269L358.38 108.892L360.008 110.055ZM364.227 127.562L365.918 126.495L365.766 126.255L365.554 126.067L364.227 127.562ZM365.07 129.25L366.969 129.879L367.07 129.572V129.25H365.07ZM358.672 158.922L358.28 160.883L358.474 160.922H358.672V158.922ZM358.953 158.922V160.922H359.722L360.293 160.407L358.953 158.922ZM370.414 136.422L372.265 137.179L372.273 137.159L372.281 137.14L370.414 136.422ZM371.047 135.438V133.438H370.801L370.562 133.497L371.047 135.438ZM374.844 137.828H376.844V137.131L376.41 136.584L374.844 137.828ZM374.844 138.109L376.72 138.801L376.844 138.466V138.109H374.844ZM364.438 159.906L362.954 158.564L362.939 158.582L362.924 158.599L364.438 159.906ZM349.953 157.234L348.173 158.145L348.226 158.25L348.292 158.348L349.953 157.234ZM355.367 123.484L354.087 121.948L353.653 122.309L353.472 122.844L355.367 123.484ZM360.641 111.914H360.992V107.914H360.641V111.914ZM360.992 111.914C362.321 111.914 364.484 112.954 367.583 116.099L370.432 113.292C367.25 110.062 364.069 107.914 360.992 107.914V111.914ZM367.304 115.744C367.461 115.998 367.546 116.167 367.586 116.262C367.606 116.308 367.605 116.315 367.599 116.289C367.593 116.268 367.57 116.175 367.57 116.031H371.57C371.57 115.498 371.406 115.027 371.273 114.71C371.126 114.36 370.929 114.002 370.711 113.647L367.304 115.744ZM367.638 115.517C367.054 117.711 366.582 119.377 366.221 120.53C366.039 121.11 365.893 121.533 365.782 121.818C365.726 121.961 365.689 122.044 365.67 122.083C365.633 122.157 365.678 122.042 365.815 121.886L368.825 124.52C369.044 124.27 369.185 123.999 369.257 123.853C369.346 123.672 369.43 123.473 369.509 123.27C369.667 122.864 369.844 122.343 370.037 121.728C370.425 120.49 370.915 118.758 371.503 116.545L367.638 115.517ZM366.211 121.539L366 121.68L368.219 125.008L368.43 124.867L366.211 121.539ZM367.109 121.344H366.477V125.344H367.109V121.344ZM366.477 121.344C365.881 121.344 365.017 121.118 363.832 120.423C362.658 119.735 361.286 118.655 359.714 117.128L356.927 119.997C358.636 121.657 360.264 122.968 361.809 123.874C363.342 124.773 364.916 125.344 366.477 125.344V121.344ZM360.109 117.668C359.962 117.375 359.875 117.172 359.828 117.045C359.805 116.982 359.8 116.961 359.803 116.973C359.803 116.974 359.828 117.07 359.828 117.227H355.828C355.828 117.715 355.977 118.163 356.074 118.428C356.192 118.746 356.35 119.094 356.531 119.457L360.109 117.668ZM359.757 117.755C360.365 115.534 360.846 113.844 361.201 112.675C361.379 112.089 361.52 111.653 361.625 111.354C361.679 111.203 361.716 111.108 361.738 111.055C361.779 110.958 361.745 111.064 361.635 111.217L358.38 108.892C358.212 109.128 358.104 109.38 358.055 109.494C357.988 109.652 357.921 109.832 357.854 110.021C357.719 110.402 357.559 110.903 357.374 111.512C357.002 112.734 356.51 114.466 355.899 116.699L359.757 117.755ZM360.442 112.007L361.074 111.866L360.207 107.962L359.574 108.102L360.442 112.007ZM356.211 125.133C356.75 125.133 357.579 125.339 358.759 125.991C359.922 126.633 361.3 127.64 362.899 129.058L365.554 126.067C363.825 124.532 362.203 123.324 360.694 122.49C359.202 121.665 357.687 121.133 356.211 121.133V125.133ZM362.536 128.63C362.802 129.052 362.973 129.351 363.071 129.547C363.12 129.645 363.134 129.685 363.132 129.678C363.13 129.674 363.118 129.639 363.105 129.581C363.093 129.528 363.07 129.41 363.07 129.25H367.07C367.07 128.851 366.964 128.518 366.904 128.347C366.831 128.141 366.74 127.941 366.648 127.758C366.465 127.391 366.214 126.964 365.918 126.495L362.536 128.63ZM363.172 128.621C360.913 135.444 359.209 141.15 358.067 145.729C356.936 150.266 356.32 153.835 356.32 156.32H360.32C360.32 154.353 360.83 151.183 361.948 146.697C363.057 142.252 364.727 136.65 366.969 129.879L363.172 128.621ZM356.32 156.32V157.938H360.32V156.32H356.32ZM356.32 157.938C356.32 158.326 356.352 158.83 356.525 159.313C356.701 159.808 357.188 160.665 358.28 160.883L359.064 156.961C359.446 157.037 359.759 157.233 359.977 157.466C360.175 157.677 360.26 157.878 360.292 157.968C360.347 158.124 360.32 158.158 360.32 157.938H356.32ZM358.672 160.922H358.953V156.922H358.672V160.922ZM360.293 160.407C361.798 159.049 363.496 156.312 365.393 152.587C367.34 148.767 369.631 143.624 372.265 137.179L368.563 135.665C365.947 142.064 363.703 147.093 361.829 150.772C359.906 154.547 358.498 156.639 357.614 157.437L360.293 160.407ZM372.281 137.14C372.377 136.89 372.431 136.799 372.43 136.8C372.429 136.802 372.38 136.881 372.273 136.982C372.171 137.077 371.926 137.279 371.532 137.378L370.562 133.497C369.667 133.721 369.206 134.418 369.066 134.637C368.854 134.967 368.686 135.345 368.547 135.704L372.281 137.14ZM371.047 137.438H371.188V133.438H371.047V137.438ZM371.188 137.438C371.419 137.438 372.122 137.617 373.278 139.072L376.41 136.584C375.034 134.852 373.3 133.438 371.188 133.438V137.438ZM372.844 137.828V138.109H376.844V137.828H372.844ZM372.967 137.418C370.846 143.176 368.936 147.824 367.238 151.381C365.52 154.979 364.086 157.313 362.954 158.564L365.921 161.248C367.461 159.546 369.097 156.771 370.848 153.104C372.619 149.394 374.576 144.621 376.72 138.801L372.967 137.418ZM362.924 158.599C361.346 160.426 360.022 161 358.953 161V165C361.634 165 363.966 163.512 365.951 161.213L362.924 158.599ZM358.953 161H358.602V165H358.953V161ZM358.602 161C356.349 161 354.001 159.679 351.614 156.12L348.292 158.348C351.062 162.478 354.479 165 358.602 165V161ZM351.734 156.323C350.813 154.524 350.406 152.913 350.406 151.469H346.406C346.406 153.68 347.031 155.914 348.173 158.145L351.734 156.323ZM350.406 151.469C350.406 149.26 350.937 145.89 352.087 141.264C353.229 136.672 354.951 130.963 357.262 124.125L353.472 122.844C351.142 129.74 349.384 135.562 348.206 140.298C347.036 145.001 346.406 148.756 346.406 151.469H350.406ZM356.648 125.021C356.664 125.007 356.635 125.035 356.558 125.067C356.476 125.101 356.356 125.133 356.211 125.133V121.133C355.336 121.133 354.617 121.506 354.087 121.948L356.648 125.021ZM390.734 128.125L392.236 126.804L392.154 126.711L392.062 126.629L390.734 128.125ZM388.766 141.062L387.088 139.973L387.083 139.981L388.766 141.062ZM383.984 139.516H381.984V140.202L382.406 140.744L383.984 139.516ZM383.984 139.305L382.468 138.001L381.984 138.563V139.305H383.984ZM387.922 130.867L389.888 131.232L390.328 128.867H387.922V130.867ZM387.852 130.867V128.867H386.997L386.406 129.485L387.852 130.867ZM380.75 141.414L382.573 142.238L382.577 142.228L382.581 142.218L380.75 141.414ZM379.906 158.359L378.992 160.138L379.228 160.259L379.487 160.315L379.906 158.359ZM391.789 145.422L393.553 146.365L393.571 146.331L393.588 146.296L391.789 145.422ZM396.43 135.438V133.438H395.128L394.601 134.628L396.43 135.438ZM400.648 137.828H402.648V137.017L402.084 136.435L400.648 137.828ZM400.648 138.109L402.453 138.973L402.648 138.563V138.109H400.648ZM389.539 158.711L391.024 160.05L391.076 159.993L391.123 159.932L389.539 158.711ZM368.516 153.789L366.648 154.503L366.679 154.587L366.719 154.667L368.516 153.789ZM374.422 128.758L372.822 127.558L372.775 127.621L372.733 127.687L374.422 128.758ZM382.227 125.133C382.661 125.133 383.48 125.341 384.783 126.106C386.046 126.847 387.584 128.003 389.407 129.621L392.062 126.629C390.135 124.919 388.38 123.579 386.807 122.656C385.274 121.756 383.714 121.133 382.227 121.133V125.133ZM389.233 129.446C389.925 130.233 390.281 131.162 390.281 132.344H394.281C394.281 130.244 393.606 128.361 392.236 126.804L389.233 129.446ZM390.281 132.344C390.281 133.938 389.389 136.43 387.088 139.973L390.443 142.152C392.83 138.476 394.281 135.156 394.281 132.344H390.281ZM387.083 139.981C386.889 140.283 386.771 140.439 386.72 140.499C386.69 140.533 386.728 140.483 386.826 140.407C386.877 140.367 386.982 140.291 387.135 140.219C387.284 140.15 387.558 140.047 387.922 140.047V144.047C388.654 144.047 389.15 143.666 389.282 143.564C389.485 143.406 389.646 143.232 389.757 143.102C389.986 142.834 390.22 142.498 390.448 142.144L387.083 139.981ZM387.922 140.047H387.711V144.047H387.922V140.047ZM387.711 140.047C387.515 140.047 386.792 139.867 385.563 138.288L382.406 140.744C383.802 142.539 385.563 144.047 387.711 144.047V140.047ZM385.984 139.516V139.305H381.984V139.516H385.984ZM385.501 140.609C387.765 137.976 389.22 134.832 389.888 131.232L385.955 130.502C385.405 133.465 384.235 135.946 382.468 138.001L385.501 140.609ZM387.922 128.867H387.852V132.867H387.922V128.867ZM386.406 129.485C383.206 132.833 380.705 136.542 378.919 140.61L382.581 142.218C384.17 138.599 386.403 135.277 389.297 132.249L386.406 129.485ZM378.927 140.59C376.689 145.543 375.445 149.748 375.445 153.086H379.445C379.445 150.612 380.404 147.035 382.573 142.238L378.927 140.59ZM375.445 153.086V153.789H379.445V153.086H375.445ZM375.445 153.789C375.445 156.566 376.541 158.878 378.992 160.138L380.821 156.581C379.99 156.153 379.445 155.419 379.445 153.789H375.445ZM379.487 160.315C379.826 160.388 380.116 160.446 380.35 160.487C380.525 160.518 380.829 160.57 381.102 160.57V156.57C381.199 156.57 381.251 156.58 381.206 156.574C381.179 156.57 381.128 156.563 381.045 156.548C380.88 156.519 380.643 156.472 380.325 156.404L379.487 160.315ZM381.102 160.57H381.594V156.57H381.102V160.57ZM381.594 160.57C382.789 160.57 383.837 159.971 384.663 159.314C385.526 158.626 386.407 157.667 387.305 156.509C389.107 154.185 391.19 150.782 393.553 146.365L390.025 144.479C387.7 148.827 385.741 151.999 384.144 154.058C383.343 155.091 382.686 155.775 382.172 156.184C381.621 156.622 381.453 156.57 381.594 156.57V160.57ZM393.588 146.296C395.238 142.901 396.795 139.551 398.258 136.247L394.601 134.628C393.158 137.886 391.621 141.193 389.99 144.547L393.588 146.296ZM396.43 137.438H396.852V133.438H396.43V137.438ZM396.852 137.438C396.819 137.438 397.006 137.433 397.473 137.728C397.924 138.011 398.503 138.489 399.213 139.221L402.084 136.435C401.247 135.574 400.42 134.856 399.605 134.343C398.807 133.84 397.869 133.438 396.852 133.438V137.438ZM398.648 137.828V138.109H402.648V137.828H398.648ZM398.844 137.246C393.618 148.169 390.004 154.83 387.955 157.49L391.123 159.932C393.48 156.873 397.272 149.8 402.453 138.973L398.844 137.246ZM388.054 157.372C385.748 159.929 383.44 161 381.102 161V165C384.857 165 388.174 163.212 391.024 160.05L388.054 157.372ZM381.102 161H380.539V165H381.102V161ZM380.539 161C376.565 161 373.119 158.655 370.313 152.911L366.719 154.667C369.912 161.204 374.482 165 380.539 165V161ZM370.384 153.075C369.876 151.746 369.602 150.19 369.602 148.375H365.602C365.602 150.591 365.937 152.644 366.648 154.503L370.384 153.075ZM369.602 148.375C369.602 142.98 371.683 136.813 376.111 129.829L372.733 127.687C368.067 135.046 365.602 141.958 365.602 148.375H369.602ZM376.022 129.958C378.789 126.268 380.866 125.133 382.227 125.133V121.133C378.806 121.133 375.679 123.748 372.822 127.558L376.022 129.958ZM405.219 109.914V107.914H404.999L404.785 107.962L405.219 109.914ZM413.586 114.695L415.289 113.647L415.17 113.454L415.011 113.292L413.586 114.695ZM414.148 116.031L416.081 116.545L416.148 116.293V116.031H414.148ZM411.898 123.203L413.008 124.867L413.229 124.72L413.404 124.52L411.898 123.203ZM411.688 123.344V125.344H412.293L412.797 125.008L411.688 123.344ZM402.898 118.562L401.11 119.457L401.261 119.761L401.505 119.997L402.898 118.562ZM402.406 117.227L400.477 116.699L400.406 116.958V117.227H402.406ZM404.586 110.055L404.152 108.102L403.404 108.269L402.958 108.892L404.586 110.055ZM408.805 127.562L410.496 126.495L410.344 126.255L410.132 126.067L408.805 127.562ZM409.648 129.25L411.547 129.879L411.648 129.572V129.25H409.648ZM403.25 158.922L402.858 160.883L403.052 160.922H403.25V158.922ZM403.531 158.922V160.922H404.3L404.871 160.407L403.531 158.922ZM414.992 136.422L416.843 137.179L416.851 137.159L416.859 137.14L414.992 136.422ZM415.625 135.438V133.438H415.379L415.14 133.497L415.625 135.438ZM419.422 137.828H421.422V137.131L420.988 136.584L419.422 137.828ZM419.422 138.109L421.299 138.801L421.422 138.466V138.109H419.422ZM409.016 159.906L407.533 158.564L407.517 158.582L407.502 158.599L409.016 159.906ZM394.531 157.234L392.751 158.145L392.805 158.25L392.87 158.348L394.531 157.234ZM399.945 123.484L398.665 121.948L398.231 122.309L398.051 122.844L399.945 123.484ZM405.219 111.914H405.57V107.914H405.219V111.914ZM405.57 111.914C406.899 111.914 409.062 112.954 412.161 116.099L415.011 113.292C411.828 110.062 408.648 107.914 405.57 107.914V111.914ZM411.883 115.744C412.039 115.998 412.124 116.167 412.165 116.262C412.184 116.308 412.183 116.315 412.177 116.289C412.171 116.268 412.148 116.175 412.148 116.031H416.148C416.148 115.498 415.985 115.027 415.851 114.71C415.704 114.36 415.507 114.002 415.289 113.647L411.883 115.744ZM412.216 115.517C411.632 117.711 411.161 119.377 410.799 120.53C410.617 121.11 410.471 121.533 410.36 121.818C410.304 121.961 410.267 122.044 410.248 122.083C410.211 122.157 410.257 122.042 410.393 121.886L413.404 124.52C413.622 124.27 413.763 123.999 413.835 123.853C413.924 123.672 414.008 123.473 414.087 123.27C414.246 122.864 414.422 122.343 414.615 121.728C415.003 120.49 415.493 118.758 416.081 116.545L412.216 115.517ZM410.789 121.539L410.578 121.68L412.797 125.008L413.008 124.867L410.789 121.539ZM411.688 121.344H411.055V125.344H411.688V121.344ZM411.055 121.344C410.459 121.344 409.595 121.118 408.41 120.423C407.236 119.735 405.864 118.655 404.292 117.128L401.505 119.997C403.214 121.657 404.842 122.968 406.387 123.874C407.921 124.773 409.494 125.344 411.055 125.344V121.344ZM404.687 117.668C404.541 117.375 404.453 117.172 404.406 117.045C404.383 116.982 404.378 116.961 404.381 116.973C404.382 116.974 404.406 117.07 404.406 117.227H400.406C400.406 117.715 400.555 118.163 400.653 118.428C400.77 118.746 400.928 119.094 401.11 119.457L404.687 117.668ZM404.335 117.755C404.943 115.534 405.424 113.844 405.779 112.675C405.957 112.089 406.098 111.653 406.204 111.354C406.257 111.203 406.294 111.108 406.317 111.055C406.358 110.958 406.323 111.064 406.213 111.217L402.958 108.892C402.79 109.128 402.682 109.38 402.633 109.494C402.567 109.652 402.499 109.832 402.432 110.021C402.298 110.402 402.137 110.903 401.952 111.512C401.58 112.734 401.088 114.466 400.477 116.699L404.335 117.755ZM405.02 112.007L405.653 111.866L404.785 107.962L404.152 108.102L405.02 112.007ZM400.789 125.133C401.328 125.133 402.158 125.339 403.337 125.991C404.5 126.633 405.878 127.64 407.477 129.058L410.132 126.067C408.403 124.532 406.781 123.324 405.272 122.49C403.78 121.665 402.266 121.133 400.789 121.133V125.133ZM407.114 128.63C407.38 129.052 407.551 129.351 407.649 129.547C407.698 129.645 407.712 129.685 407.71 129.678C407.708 129.674 407.696 129.639 407.683 129.581C407.671 129.528 407.648 129.41 407.648 129.25H411.648C411.648 128.851 411.542 128.518 411.482 128.347C411.409 128.141 411.318 127.941 411.226 127.758C411.043 127.391 410.792 126.964 410.496 126.495L407.114 128.63ZM407.75 128.621C405.491 135.444 403.787 141.15 402.645 145.729C401.514 150.266 400.898 153.835 400.898 156.32H404.898C404.898 154.353 405.408 151.183 406.527 146.697C407.635 142.252 409.305 136.65 411.547 129.879L407.75 128.621ZM400.898 156.32V157.938H404.898V156.32H400.898ZM400.898 157.938C400.898 158.326 400.93 158.83 401.103 159.313C401.28 159.808 401.766 160.665 402.858 160.883L403.642 156.961C404.024 157.037 404.337 157.233 404.555 157.466C404.753 157.677 404.838 157.878 404.87 157.968C404.925 158.124 404.898 158.158 404.898 157.938H400.898ZM403.25 160.922H403.531V156.922H403.25V160.922ZM404.871 160.407C406.377 159.049 408.074 156.312 409.972 152.587C411.918 148.767 414.209 143.624 416.843 137.179L413.141 135.665C410.525 142.064 408.282 147.093 406.407 150.772C404.484 154.547 403.077 156.639 402.192 157.437L404.871 160.407ZM416.859 137.14C416.955 136.89 417.009 136.799 417.009 136.8C417.007 136.802 416.958 136.881 416.851 136.982C416.749 137.077 416.504 137.279 416.11 137.378L415.14 133.497C414.246 133.721 413.785 134.418 413.644 134.637C413.432 134.967 413.264 135.345 413.125 135.704L416.859 137.14ZM415.625 137.438H415.766V133.438H415.625V137.438ZM415.766 137.438C415.997 137.438 416.7 137.617 417.856 139.072L420.988 136.584C419.612 134.852 417.878 133.438 415.766 133.438V137.438ZM417.422 137.828V138.109H421.422V137.828H417.422ZM417.545 137.418C415.424 143.176 413.514 147.824 411.816 151.381C410.098 154.979 408.664 157.313 407.533 158.564L410.499 161.248C412.039 159.546 413.675 156.771 415.426 153.104C417.197 149.394 419.154 144.621 421.299 138.801L417.545 137.418ZM407.502 158.599C405.924 160.426 404.601 161 403.531 161V165C406.212 165 408.545 163.512 410.529 161.213L407.502 158.599ZM403.531 161H403.18V165H403.531V161ZM403.18 161C400.927 161 398.579 159.679 396.192 156.12L392.87 158.348C395.64 162.478 399.057 165 403.18 165V161ZM396.312 156.323C395.391 154.524 394.984 152.913 394.984 151.469H390.984C390.984 153.68 391.609 155.914 392.751 158.145L396.312 156.323ZM394.984 151.469C394.984 149.26 395.515 145.89 396.665 141.264C397.808 136.672 399.529 130.963 401.84 124.125L398.051 122.844C395.721 129.74 393.962 135.562 392.784 140.298C391.614 145.001 390.984 148.756 390.984 151.469H394.984ZM401.226 125.021C401.242 125.007 401.214 125.035 401.136 125.067C401.054 125.101 400.934 125.133 400.789 125.133V121.133C399.914 121.133 399.196 121.506 398.665 121.948L401.226 125.021Z" fill="black"/>
<path d="M340.5 168.5C340 166 336.167 163.333 335.5 163L330.5 168.5C333.3 167.3 338 170.5 338.5 171L340.5 168.5Z" fill="#101010"/>
</svg>
