<svg width="50" height="50" viewBox="0 0 50 50" fill="none" xmlns="http://www.w3.org/2000/svg">
<g clip-path="url(#clip0)">
<path d="M31.9068 18C32.552 16.8623 32.92 15.549 32.92 14.1505C32.92 9.80944 29.3741 6.29031 25 6.29031C20.6259 6.29031 17.08 9.80943 17.08 14.1505C17.08 15.549 17.448 16.8623 18.0932 18C16.7865 16.4134 16 14.3699 16 12.1398C16 7.09201 20.0294 3 25 3C29.9706 3 34 7.09201 34 12.1398C34 14.3699 33.2135 16.4134 31.9068 18Z" fill="#FFF500"/>
<path d="M22 19.2095C20.8623 18.5285 19.549 18.14 18.1505 18.14C13.8094 18.14 10.2903 21.8829 10.2903 26.5C10.2903 31.1171 13.8094 34.86 18.1505 34.86C19.549 34.86 20.8623 34.4715 22 33.7905C20.4134 35.1698 18.3699 36 16.1398 36C11.092 36 7 31.7467 7 26.5C7 21.2533 11.092 17 16.1398 17C18.3699 17 20.4134 17.8302 22 19.2095Z" fill="#FFF500"/>
<path d="M27 20.0932C28.1377 19.448 29.451 19.08 30.8495 19.08C35.1906 19.08 38.7097 22.6259 38.7097 27C38.7097 31.3741 35.1906 34.92 30.8495 34.92C29.451 34.92 28.1377 34.552 27 33.9068C28.5866 35.2135 30.6301 36 32.8602 36C37.908 36 42 31.9706 42 27C42 22.0294 37.908 18 32.8602 18C30.6301 18 28.5866 18.7865 27 20.0932Z" fill="#FFF500"/>
<path d="M25 33C24.5346 34.2176 23.5197 36.6529 24.2652 40.3058C25.4409 46.0661 24.5836 47.6584 24.2652 50" stroke="black" stroke-width="2" stroke-linecap="round"/>
</g>
<defs>
<clipPath id="clip0">
<rect width="50" height="50" fill="white"/>
</clipPath>
</defs>
</svg>
