<svg width="259" height="353" viewBox="0 0 259 353" fill="none" xmlns="http://www.w3.org/2000/svg">
<path d="M186.301 111C191.14 102.581 193.9 92.8629 193.9 82.5137C193.9 50.3898 167.306 24.3483 134.5 24.3483C101.694 24.3483 75.1 50.3898 75.1 82.5137C75.1 92.8629 77.8603 102.581 82.6992 111C72.8989 99.2595 67 84.1371 67 67.6342C67 30.2808 97.2208 -1.63277e-06 134.5 0C171.779 1.63277e-06 202 30.2809 202 67.6342C202 84.1371 196.101 99.2595 186.301 111Z" fill="#FFF500"/>
<path d="M111 121.815C102.581 116.941 92.8629 114.16 82.5137 114.16C50.3898 114.16 24.3483 140.951 24.3483 174C24.3483 207.049 50.3898 233.84 82.5137 233.84C92.8629 233.84 102.581 231.059 111 226.185C99.2595 236.057 84.1371 242 67.6342 242C30.2808 242 0 211.555 0 174C0 136.445 30.2808 106 67.6342 106C84.1371 106 99.2595 111.943 111 121.815Z" fill="#FFF500"/>
<path d="M149 125.467C157.343 120.699 166.974 117.98 177.23 117.98C209.064 117.98 234.871 144.18 234.871 176.5C234.871 208.82 209.064 235.02 177.23 235.02C166.974 235.02 157.343 232.301 149 227.533C160.635 237.189 175.621 243 191.975 243C228.992 243 259 213.227 259 176.5C259 139.773 228.992 110 191.975 110C175.621 110 160.635 115.811 149 125.467Z" fill="#FFF500"/>
<path d="M132 225C127.812 233.81 118.677 251.43 125.387 277.86C135.968 319.537 128.253 331.058 125.387 348" stroke="black" stroke-width="10" stroke-linecap="round"/>
</svg>
